<svg width="28" height="20" viewBox="0 0 28 20" fill="none" xmlns="http://www.w3.org/2000/svg">
<path d="M27.3 18.2H0.7C0.313141 18.2 0 18.5131 0 18.8999C0 19.2868 0.313141 19.5999 0.7 19.5999H27.3C27.6869 19.5999 28 19.2868 28 18.8999C28 18.5131 27.6869 18.2 27.3 18.2Z" fill="#142850"/>
<path d="M25.1999 0H2.7999C2.02662 0 1.3999 0.626718 1.3999 1.4V15.4C1.3999 16.1733 2.02662 16.8 2.7999 16.8H25.1999C25.9732 16.8 26.5999 16.1733 26.5999 15.4V1.4C26.5999 0.626718 25.9732 0 25.1999 0ZM25.1999 15.4H2.7999V1.4H25.1999V15.4Z" fill="#142850"/>
<path fill-rule="evenodd" clip-rule="evenodd" d="M18.8504 4.11011C19.0366 4.26794 19.0509 4.53734 18.8825 4.71178L12.8117 11L9.14069 7.71604C8.9591 7.55357 8.95242 7.28392 9.12574 7.11374C9.2991 6.94356 9.58683 6.93729 9.76842 7.09976L12.764 9.77955L18.2084 4.14019C18.3768 3.96575 18.6643 3.95224 18.8504 4.11011Z" fill="#142850"/>
</svg>
