<svg width="30" height="30" viewBox="0 0 30 30" fill="none" xmlns="http://www.w3.org/2000/svg">
<path d="M5.00001 25V17.5C5.00001 14.8478 6.05358 12.3043 7.92894 10.4289C9.80431 8.55357 12.3478 7.5 15 7.5C17.6522 7.5 20.1957 8.55357 22.0711 10.4289C23.9464 12.3043 25 14.8478 25 17.5V25H26.25V27.5H3.75001V25H5.00001ZM7.50001 25H22.5V17.5C22.5 15.5109 21.7098 13.6032 20.3033 12.1967C18.8968 10.7902 16.9891 10 15 10C13.0109 10 11.1032 10.7902 9.69671 12.1967C8.29019 13.6032 7.50001 15.5109 7.50001 17.5V25ZM13.75 2.5H16.25V6.25H13.75V2.5ZM24.7225 6.01L26.49 7.7775L23.84 10.4287L22.0713 8.66125L24.7225 6.01ZM3.51001 7.7775L5.27751 6.01L7.92876 8.66L6.16251 10.43L3.51001 7.7775ZM8.75001 17.5C8.75001 15.8424 9.40849 14.2527 10.5806 13.0806C11.7527 11.9085 13.3424 11.25 15 11.25V13.75C14.0054 13.75 13.0516 14.1451 12.3484 14.8483C11.6451 15.5516 11.25 16.5054 11.25 17.5H8.75001Z" fill="#142850"/>
</svg>
