<svg width="42" height="37" viewBox="0 0 42 37" fill="none" xmlns="http://www.w3.org/2000/svg">
<path d="M38.0976 8.64603H3.35775C1.50314 8.64603 0 10.1498 0 12.0039V16.6025L17.1249 20.2142V17.9244H24.2315V20.2142L41.4547 16.5795V12.0039C41.4547 10.1498 39.9516 8.64603 38.0976 8.64603Z" fill="#27496D"/>
<path d="M24.2342 27.3998H17.1276V22.7833L1.1875 19.6176V33.1226C1.1875 34.9765 2.68999 36.4802 4.54395 36.4802H36.9162C38.7702 36.4802 40.2733 34.9765 40.2733 33.1226V19.594L24.2342 22.7833V27.3998Z" fill="#27496D"/>
<path d="M22.4553 19.7012H18.9023V25.6224H22.4553V19.7012Z" fill="#27496D"/>
<path d="M15.6892 3.35905C15.6898 3.22116 15.7408 3.11153 15.8308 3.01834C15.9221 2.92903 16.0325 2.87924 16.169 2.87794H25.2839C25.4204 2.87924 25.5315 2.92903 25.6227 3.01834C25.712 3.11153 25.7625 3.22116 25.7631 3.35905V5.75783H28.6411V3.35905C28.6417 2.43522 28.2634 1.58791 27.6579 0.984388C27.055 0.378356 26.2059 -0.000646901 25.2839 8.28924e-07H16.169C15.2464 -0.000646901 14.3978 0.378356 13.795 0.984388C13.1902 1.58791 12.8106 2.43514 12.8125 3.35905V5.75783H15.6892V3.35905Z" fill="#27496D"/>
</svg>
