<svg width="28" height="29" viewBox="0 0 28 29" fill="none" xmlns="http://www.w3.org/2000/svg">
<path fill-rule="evenodd" clip-rule="evenodd" d="M13.9252 1.89999e-07H14.0748C17.081 -1.28966e-05 19.437 -2.60333e-05 21.2752 0.248319C23.1567 0.502514 24.6414 1.03297 25.8068 2.20397C26.9721 3.37498 27.4999 4.86688 27.753 6.75756C28 8.60471 28 10.9721 28 13.993V14.1432C28 17.1642 28 19.5315 27.753 21.3787C27.4999 23.2693 26.9721 24.7613 25.8068 25.9323C24.6414 27.1033 23.1567 27.6337 21.2752 27.888C19.437 28.1363 17.081 28.1363 14.0748 28.1363H13.9252C10.919 28.1363 8.56304 28.1363 6.72483 27.888C4.84331 27.6337 3.35863 27.1033 2.1933 25.9323C1.02796 24.7613 0.50008 23.2693 0.247116 21.3787C-2.59072e-05 19.5315 -1.28342e-05 17.1642 1.89079e-07 14.1432V13.993C-1.28342e-05 10.9721 -2.59072e-05 8.60471 0.247116 6.75756C0.50008 4.86688 1.02796 3.37498 2.1933 2.20397C3.35863 1.03297 4.84331 0.502514 6.72483 0.248319C8.56304 -2.60333e-05 10.919 -1.28966e-05 13.9252 1.89999e-07ZM6.98513 2.1938C5.32022 2.41874 4.31649 2.84653 3.57462 3.59202C2.83274 4.3375 2.40702 5.34611 2.18318 7.01912C1.95556 8.72036 1.95349 10.9558 1.95349 14.0681C1.95349 17.1804 1.95556 19.4158 2.18318 21.1171C2.40702 22.7901 2.83274 23.7987 3.57462 24.5442C4.31649 25.2898 5.32022 25.7176 6.98513 25.9424C8.67813 26.1712 10.9028 26.1733 14 26.1733C17.0972 26.1733 19.3218 26.1712 21.0148 25.9424C22.6797 25.7176 23.6834 25.2898 24.4254 24.5442C25.1673 23.7987 25.593 22.7901 25.8168 21.1171C26.0444 19.4158 26.0465 17.1804 26.0465 14.0681C26.0465 10.9558 26.0444 8.72036 25.8168 7.01912C25.593 5.34611 25.1673 4.3375 24.4254 3.59202C23.6834 2.84653 22.6797 2.41874 21.0148 2.1938C19.3218 1.96508 17.0972 1.96299 14 1.96299C10.9028 1.96299 8.67813 1.96508 6.98513 2.1938Z" fill="#142850"/>
<path fill-rule="evenodd" clip-rule="evenodd" d="M8.79087 5.88879C9.3303 5.88879 9.76761 6.32822 9.76761 6.87029V8.50613H11.3955C11.9349 8.50613 12.3723 8.94557 12.3723 9.48763C12.3723 10.0297 11.9349 10.4691 11.3955 10.4691H9.76761V12.105C9.76761 12.647 9.3303 13.0865 8.79087 13.0865C8.25143 13.0865 7.81412 12.647 7.81412 12.105V10.4691H6.18622C5.64678 10.4691 5.20947 10.0297 5.20947 9.48763C5.20947 8.94557 5.64678 8.50613 6.18622 8.50613H7.81412V6.87029C7.81412 6.32822 8.25143 5.88879 8.79087 5.88879ZM15.6281 9.48762C15.6281 8.94554 16.0654 8.50612 16.6048 8.50612H21.8141C22.3535 8.50612 22.7909 8.94554 22.7909 9.48762C22.7909 10.0297 22.3535 10.4691 21.8141 10.4691H16.6048C16.0654 10.4691 15.6281 10.0297 15.6281 9.48762ZM15.6281 17.3396C15.6281 16.7976 16.0654 16.3581 16.6048 16.3581H21.8141C22.3535 16.3581 22.7909 16.7976 22.7909 17.3396C22.7909 17.8817 22.3535 18.3211 21.8141 18.3211H16.6048C16.0654 18.3211 15.6281 17.8817 15.6281 17.3396ZM6.14672 16.6456C6.52816 16.2623 7.1466 16.2623 7.52804 16.6456L8.79088 17.9145L10.0537 16.6456C10.4351 16.2623 11.0536 16.2623 11.435 16.6456C11.8164 17.0289 11.8164 17.6503 11.435 18.0336L10.1722 19.3026L11.435 20.5716C11.8164 20.9549 11.8164 21.5763 11.435 21.9596C11.0536 22.3429 10.4351 22.3429 10.0537 21.9596L8.79088 20.6907L7.52806 21.9596C7.14662 22.3429 6.52818 22.3429 6.14673 21.9596C5.76529 21.5763 5.76529 20.9549 6.14673 20.5716L7.40956 19.3026L6.14672 18.0336C5.76528 17.6503 5.76528 17.0289 6.14672 16.6456ZM15.6281 21.2656C15.6281 20.7236 16.0654 20.2841 16.6048 20.2841H21.8141C22.3535 20.2841 22.7909 20.7236 22.7909 21.2656C22.7909 21.8077 22.3535 22.2471 21.8141 22.2471H16.6048C16.0654 22.2471 15.6281 21.8077 15.6281 21.2656Z" fill="#142850"/>
</svg>
