<svg width="25" height="25" viewBox="0 0 25 25" fill="none" xmlns="http://www.w3.org/2000/svg">
<path d="M20.8476 6.82726L5.52363 0.105925C5.21702 -0.0280157 4.86959 -0.0352093 4.55766 0.0859244C4.4035 0.146775 4.26295 0.237412 4.14411 0.352617C4.02526 0.467821 3.93046 0.605316 3.86516 0.757183L0.101616 9.5073C-0.02944 9.81197 -0.0336784 10.156 0.0898332 10.4638C0.213345 10.7716 0.454491 11.0179 0.760237 11.1486L9.48791 14.8749L7.93231 18.7499H2.50903V14.9999H0V25H2.50903V21.25H7.93231C8.96477 21.25 9.87932 20.6324 10.2607 19.6774L11.7937 15.8599L16.0829 17.6912C16.3873 17.8215 16.7311 17.8266 17.0392 17.7052C17.3473 17.5839 17.5948 17.3461 17.7276 17.0436L21.4911 8.47228C21.6243 8.16905 21.6313 7.82558 21.5107 7.5172C21.39 7.20881 21.1515 6.9607 20.8476 6.82726ZM22.4935 17.9649L20.1626 17.0374L22.6691 10.7873L25 11.7136L22.4935 17.9649Z" fill="#142850"/>
</svg>
