<svg width="25" height="25" viewBox="0 0 25 25" fill="none" xmlns="http://www.w3.org/2000/svg">
<path d="M8.63369 0H2.46677C1.10441 0 0 1.10441 0 2.46677V11.1005C0 12.4628 1.10441 13.5672 2.46677 13.5672H8.63369C9.99605 13.5672 11.1005 12.4628 11.1005 11.1005V2.46677C11.1005 1.10441 9.99605 0 8.63369 0Z" fill="white"/>
<path d="M22.1981 0H16.0312C14.6689 0 13.5645 1.10441 13.5645 2.46677V6.16692C13.5645 7.52928 14.6689 8.63369 16.0312 8.63369H22.1981C23.5605 8.63369 24.6649 7.52928 24.6649 6.16692V2.46677C24.6649 1.10441 23.5605 0 22.1981 0Z" fill="white"/>
<path d="M8.63369 16.034H2.46677C1.10441 16.034 0 17.1384 0 18.5008V22.2009C0 23.5633 1.10441 24.6677 2.46677 24.6677H8.63369C9.99605 24.6677 11.1005 23.5633 11.1005 22.2009V18.5008C11.1005 17.1384 9.99605 16.034 8.63369 16.034Z" fill="white"/>
<path d="M22.1981 11.1005H16.0312C14.6689 11.1005 13.5645 12.2049 13.5645 13.5673V22.201C13.5645 23.5633 14.6689 24.6677 16.0312 24.6677H22.1981C23.5605 24.6677 24.6649 23.5633 24.6649 22.201V13.5673C24.6649 12.2049 23.5605 11.1005 22.1981 11.1005Z" fill="white"/>
</svg>
