<svg width="22" height="18" viewBox="0 0 22 18" fill="none" xmlns="http://www.w3.org/2000/svg">
<path d="M14.8499 3.85003C14.8499 5.97635 13.1262 7.70006 10.9999 7.70006C8.87359 7.70006 7.1499 5.97635 7.1499 3.85003C7.1499 1.72371 8.87359 0 10.9999 0C13.1262 0 14.8499 1.72371 14.8499 3.85003Z" fill="#1C274C"/>
<path d="M17.5998 13.7501C17.5998 15.8764 14.6449 17.6001 10.9999 17.6001C7.35481 17.6001 4.3999 15.8764 4.3999 13.7501C4.3999 11.6237 7.35481 9.90002 10.9999 9.90002C14.6449 9.90002 17.5998 11.6237 17.5998 13.7501Z" fill="#1C274C"/>
<path d="M5.63401 1.09998C5.82922 1.09998 6.01979 1.11913 6.20381 1.15559C5.7555 1.95189 5.49976 2.87108 5.49976 3.85C5.49976 4.80508 5.7432 5.70331 6.1714 6.48601C5.99745 6.51843 5.81779 6.5354 5.63401 6.5354C4.07816 6.5354 2.81689 5.31864 2.81689 3.81769C2.81689 2.31674 4.07816 1.09998 5.63401 1.09998Z" fill="#1C274C"/>
<path d="M3.79206 16.4847C3.16735 15.7379 2.74999 14.8215 2.74999 13.7501C2.74999 12.7115 3.14221 11.8185 3.73534 11.0845C1.6402 11.2471 0 12.3929 0 13.7825C0 15.185 1.66902 16.3393 3.79206 16.4847Z" fill="#1C274C"/>
<path d="M16.4999 3.85C16.4999 4.80508 16.2565 5.70331 15.8282 6.48601C16.0023 6.51843 16.1819 6.5354 16.3657 6.5354C17.9215 6.5354 19.1828 5.31864 19.1828 3.81769C19.1828 2.31674 17.9215 1.09998 16.3657 1.09998C16.1704 1.09998 15.9799 1.11913 15.7959 1.15559C16.2441 1.95189 16.4999 2.87108 16.4999 3.85Z" fill="#1C274C"/>
<path d="M18.208 16.4847C20.331 16.3393 22 15.185 22 13.7825C22 12.3929 20.3598 11.2471 18.2647 11.0845C18.8578 11.8185 19.25 12.7115 19.25 13.7501C19.25 14.8215 18.8327 15.7379 18.208 16.4847Z" fill="#1C274C"/>
</svg>
