<svg width="31" height="27" viewBox="0 0 31 27" fill="none" xmlns="http://www.w3.org/2000/svg">
<path opacity="0.83" d="M29.4203 19.2444H11.4414C10.5713 19.2444 9.86495 18.468 9.86495 17.52C9.86495 16.572 10.5713 15.7955 11.4414 15.7955H29.4203C30.2927 15.7955 30.999 16.572 30.999 17.52C30.999 18.468 30.2905 19.2444 29.4203 19.2444ZM29.4203 11.2H11.4414C10.5713 11.2 9.86495 10.4258 9.86495 9.4755C9.86495 8.5275 10.5713 7.75104 11.4414 7.75104H29.4203C30.2927 7.75104 30.999 8.5275 30.999 9.4755C30.999 10.4235 30.2905 11.2 29.4203 11.2ZM29.3074 3.44441H1.77666C0.846712 3.44441 0.0274758 2.72663 0.00090596 1.78089C-0.00651819 1.54973 0.031749 1.3194 0.11343 1.10363C0.195111 0.887847 0.318537 0.691023 0.476364 0.524867C0.63419 0.358712 0.823191 0.226619 1.03212 0.136449C1.24105 0.0462798 1.46564 -0.000123614 1.69252 2.47306e-07H29.2233C30.1532 2.47306e-07 30.9725 0.72003 30.999 1.66352C31.0068 1.89487 30.9687 2.12543 30.8872 2.34148C30.8056 2.55752 30.6822 2.75461 30.5244 2.92101C30.3665 3.08741 30.1774 3.21971 29.9683 3.31002C29.7593 3.40033 29.5345 3.4468 29.3074 3.44666V3.44441ZM7.86557 19.2174V7.78264L0.00090596 13.5L7.86557 19.2174C7.86557 19.2444 7.86557 19.2444 7.86557 19.2174ZM1.69252 23.5533H29.2233C30.1532 23.5533 30.9725 24.2756 30.999 25.2191C31.0064 25.4503 30.9682 25.6806 30.8865 25.8964C30.8048 26.1122 30.6814 26.309 30.5236 26.4751C30.3657 26.6413 30.1767 26.7734 29.9678 26.8636C29.7589 26.9537 29.5343 27.0001 29.3074 27H1.77666C0.846712 27 0.0274758 26.28 0.00090596 25.3342C-0.00651819 25.1031 0.031749 24.8727 0.11343 24.657C0.195111 24.4412 0.318537 24.2444 0.476364 24.0782C0.63419 23.912 0.823191 23.78 1.03212 23.6898C1.24105 23.5996 1.46564 23.5532 1.69252 23.5533Z" fill="#142850"/>
</svg>
