<svg width="25" height="25" viewBox="0 0 25 25" fill="none" xmlns="http://www.w3.org/2000/svg">
<path d="M24.7408 12.6542C24.4665 13.4214 23.7869 13.9173 23.0088 13.9173H22.3757V23.4862C22.3757 23.9663 22.0044 24.3561 21.547 24.3561H16.5748V18.2668C16.5748 15.8685 14.716 13.9173 12.4313 13.9173C10.1465 13.9173 8.28774 15.8685 8.28774 18.2668V24.3561H3.31554C2.85809 24.3561 2.48683 23.9663 2.48683 23.4862V13.9173H1.85288C1.07473 13.9173 0.395192 13.4223 0.120892 12.6551C-0.153409 11.8878 0.047966 11.044 0.634687 10.5064L10.3131 0.885339C11.5014 -0.295113 13.3619 -0.295113 14.5494 0.885339L24.251 10.529C24.8129 11.0431 25.0151 11.8869 24.7408 12.6542Z" fill="white"/>
</svg>
