<svg width="31" height="23" viewBox="0 0 31 23" fill="none" xmlns="http://www.w3.org/2000/svg">
<path d="M9.02778 2.02026L29.25 2.02137M9.02778 11.2511L29.25 11.2523M9.02778 20.4818L29.25 20.4831M2.02778 2.01923H2.04333M2.02778 11.25H2.04333M2.02778 20.4808H2.04333M2.80556 2.01923C2.80556 2.44406 2.45733 2.78846 2.02778 2.78846C1.59823 2.78846 1.25 2.44406 1.25 2.01923C1.25 1.5944 1.59823 1.25 2.02778 1.25C2.45733 1.25 2.80556 1.5944 2.80556 2.01923ZM2.80556 11.25C2.80556 11.6748 2.45733 12.0192 2.02778 12.0192C1.59823 12.0192 1.25 11.6748 1.25 11.25C1.25 10.8252 1.59823 10.4808 2.02778 10.4808C2.45733 10.4808 2.80556 10.8252 2.80556 11.25ZM2.80556 20.4808C2.80556 20.9055 2.45733 21.25 2.02778 21.25C1.59823 21.25 1.25 20.9055 1.25 20.4808C1.25 20.056 1.59823 19.7115 2.02778 19.7115C2.45733 19.7115 2.80556 20.056 2.80556 20.4808Z" stroke="#142850" stroke-width="2.5" stroke-linecap="round" stroke-linejoin="round"/>
</svg>
