<svg width="25" height="25" viewBox="0 0 25 25" fill="none" xmlns="http://www.w3.org/2000/svg">
<path d="M1 17.1001C1 13.8474 1 12.2211 2.01048 11.2106C3.02096 10.2001 4.6473 10.2001 7.89999 10.2001H17.1C20.3526 10.2001 21.979 10.2001 22.9895 11.2106C24 12.2211 24 13.8474 24 17.1001C24 20.3528 24 21.9791 22.9895 22.9896C21.979 24.0001 20.3526 24.0001 17.1 24.0001H7.89999C4.6473 24.0001 3.02096 24.0001 2.01048 22.9896C1 21.9791 1 20.3528 1 17.1001Z" stroke="#1C274C" stroke-width="2"/>
<path d="M12.4997 19.3999C13.77 19.3999 14.7997 18.3702 14.7997 17.0999C14.7997 15.8297 13.77 14.7999 12.4997 14.7999C11.2295 14.7999 10.1997 15.8297 10.1997 17.0999C10.1997 18.3702 11.2295 19.3999 12.4997 19.3999Z" stroke="#1C274C" stroke-width="2"/>
<path d="M5.59985 10.2V7.90001C5.59985 4.08924 8.68908 1 12.4998 1C15.715 1 18.4165 3.19899 19.1825 6.17501" stroke="#1C274C" stroke-width="2" stroke-linecap="round"/>
</svg>
