<svg width="28" height="35" viewBox="0 0 28 35" fill="none" xmlns="http://www.w3.org/2000/svg">
<path d="M8.47884 13.125C8.01634 13.125 7.70801 13.4167 7.70801 13.8542V14.5833C5.08717 14.5833 3.08301 16.4792 3.08301 18.9583C3.08301 21.4375 5.08717 23.3333 7.70801 23.3333C10.3288 23.3333 12.333 21.4375 12.333 18.9583H13.1038C13.5663 18.9583 13.8747 18.6667 13.8747 18.2292C13.8747 15.4583 11.408 13.125 8.47884 13.125ZM9.24967 14.7292C10.7913 15.0208 12.0247 16.1875 12.1788 17.5H9.24967V14.7292ZM7.70801 21.875C6.01217 21.875 4.62467 20.5625 4.62467 18.9583C4.62467 17.3542 6.01217 16.0417 7.70801 16.0417V18.2292C7.70801 18.6667 8.01634 18.9583 8.47884 18.9583H10.7913C10.7913 20.5625 9.40384 21.875 7.70801 21.875Z" fill="#142850"/>
<path d="M22.3538 32.0835H5.39551C4.16217 32.0835 3.08301 31.0627 3.08301 29.896V26.9794C3.08301 25.8127 4.16217 24.7919 5.39551 24.7919H22.3538C23.5872 24.7919 24.6663 25.8127 24.6663 26.9794V29.896C24.6663 31.0627 23.5872 32.0835 22.3538 32.0835ZM5.39551 26.2502C4.93301 26.2502 4.62467 26.5419 4.62467 26.9794V29.896C4.62467 30.3335 4.93301 30.6252 5.39551 30.6252H22.3538C22.8163 30.6252 23.1247 30.3335 23.1247 29.896V26.9794C23.1247 26.5419 22.8163 26.2502 22.3538 26.2502H5.39551Z" fill="#142850"/>
<path d="M23.8958 23.3333H14.6458C14.1833 23.3333 13.875 23.0417 13.875 22.6042C13.875 22.1667 14.1833 21.875 14.6458 21.875H23.8958C24.3583 21.875 24.6667 22.1667 24.6667 22.6042C24.6667 23.0417 24.3583 23.3333 23.8958 23.3333Z" fill="#142850"/>
<path d="M23.8962 20.4165H16.1878C15.7253 20.4165 15.417 20.1248 15.417 19.6873C15.417 19.2498 15.7253 18.9581 16.1878 18.9581H23.8962C24.3587 18.9581 24.667 19.2498 24.667 19.6873C24.667 20.1248 24.3587 20.4165 23.8962 20.4165Z" fill="#142850"/>
<path d="M23.8962 17.5002H16.1878C15.7253 17.5002 15.417 17.2085 15.417 16.771C15.417 16.3335 15.7253 16.0419 16.1878 16.0419H23.8962C24.3587 16.0419 24.667 16.3335 24.667 16.771C24.667 17.2085 24.3587 17.5002 23.8962 17.5002Z" fill="#142850"/>
<path d="M23.8958 14.5833H14.6458C14.1833 14.5833 13.875 14.2917 13.875 13.8542C13.875 13.4167 14.1833 13.125 14.6458 13.125H23.8958C24.3583 13.125 24.6667 13.4167 24.6667 13.8542C24.6667 14.2917 24.3583 14.5833 23.8958 14.5833Z" fill="#142850"/>
<path d="M23.8958 11.6666H14.6458C14.1833 11.6666 13.875 11.3749 13.875 10.9374C13.875 10.4999 14.1833 10.2083 14.6458 10.2083H23.8958C24.3583 10.2083 24.6667 10.4999 24.6667 10.9374C24.6667 11.3749 24.3583 11.6666 23.8958 11.6666Z" fill="#142850"/>
<path d="M25.4375 0H12.1792C11.5625 0 10.9458 0.291667 10.4833 0.583333L0.616667 10.0625C0.308333 10.3542 0 10.9375 0 11.5208V32.8125C0 33.9792 1.07917 35 2.3125 35H25.4375C26.6708 35 27.75 33.9792 27.75 32.8125V2.1875C27.75 1.02083 26.6708 0 25.4375 0ZM12.3333 4.375H22.3542C22.8167 4.375 23.125 4.66667 23.125 5.10417V6.5625C23.125 7 22.8167 7.29167 22.3542 7.29167H12.3333V4.375ZM10.7917 2.47917V9.47917C10.7917 9.91667 10.4833 10.2083 10.0208 10.2083H2.62083L10.7917 2.47917ZM26.2083 32.8125C26.2083 33.25 25.9 33.5417 25.4375 33.5417H2.3125C1.85 33.5417 1.54167 33.25 1.54167 32.8125V11.6667H10.0208C11.2542 11.6667 12.3333 10.6458 12.3333 9.47917V8.75H22.3542C23.5875 8.75 24.6667 7.72917 24.6667 6.5625V5.10417C24.6667 3.9375 23.5875 2.91667 22.3542 2.91667H12.3333V1.45833H25.4375C25.9 1.45833 26.2083 1.75 26.2083 2.1875V32.8125Z" fill="#142850"/>
</svg>
