<svg width="22" height="23" viewBox="0 0 22 23" fill="none" xmlns="http://www.w3.org/2000/svg">
<path d="M7.90579 0H0.782459C0.350628 0 0 0.367073 0 0.821357V9.55523C0 10.009 0.350159 10.3766 0.782459 10.3766H7.90579C8.99711 10.3766 9.88471 9.44487 9.88471 8.29881V2.07729C9.88471 0.931725 8.99711 0 7.90579 0ZM8.32026 8.29832C8.32026 8.53827 8.13438 8.73388 7.90579 8.73388H1.56492V1.64222H7.90626C8.13485 1.64222 8.32073 1.83783 8.32073 2.07778V8.29832H8.32026ZM19.3409 0H14.5809C13.1676 0 12.018 1.20666 12.018 2.68924V7.68587C12.018 9.16944 13.1676 10.3761 14.5809 10.3761H19.3409C20.7532 10.3761 21.9028 9.16944 21.9028 7.68587V2.68924C21.9028 1.20666 20.7532 0 19.3409 0ZM20.3383 7.68587C20.3383 8.26383 19.8905 8.73388 19.3409 8.73388H14.5809C14.0303 8.73388 13.5825 8.26383 13.5825 7.68587V2.68924C13.5825 2.11178 14.0303 1.64222 14.5809 1.64222H19.3409C19.891 1.64222 20.3383 2.11227 20.3383 2.68924V7.68587ZM7.90579 12.615H0.782459C0.350628 12.615 0 12.9821 0 13.4364V22.1702C0 22.624 0.350159 22.9916 0.782459 22.9916H9.10225C9.53408 22.9916 9.88471 22.6245 9.88471 22.1702V14.6928C9.88471 13.5467 8.99711 12.615 7.90579 12.615ZM8.32026 21.3489H1.56492V14.2572H7.90626C8.13485 14.2572 8.32073 14.4528 8.32073 14.6928V21.3489H8.32026ZM20.2435 12.615H13.9974C12.9056 12.615 12.018 13.5467 12.018 14.6928V22.1702C12.018 22.624 12.3677 22.9916 12.8005 22.9916H21.1208C21.5531 22.9916 21.9032 22.6245 21.9032 22.1702V14.3572C21.9028 13.3969 21.1588 12.615 20.2435 12.615ZM20.3383 21.3489H13.5825V14.6923C13.5825 14.4523 13.7688 14.2567 13.9974 14.2567H20.244C20.2961 14.2567 20.3388 14.3016 20.3388 14.3567V21.3489H20.3383Z" fill="#142850"/>
</svg>
