<svg width="29" height="31" viewBox="0 0 29 31" fill="none" xmlns="http://www.w3.org/2000/svg">
<path fill-rule="evenodd" clip-rule="evenodd" d="M9.52026 12.5725H4.05094C3.24842 12.5659 2.47612 12.8784 1.90396 13.4411C1.33178 14.0039 1.00661 14.7709 1 15.5733V26.9306C1.01485 28.6011 2.38052 29.9436 4.05094 29.9295H9.52026C10.3227 29.9363 11.0951 29.6238 11.6673 29.0611C12.2395 28.4983 12.5646 27.7313 12.5712 26.9287V15.5733C12.5646 14.7709 12.2395 14.0039 11.6673 13.4411C11.0951 12.8784 10.3227 12.5659 9.52026 12.5725Z" stroke="black" stroke-width="2" stroke-linecap="round" stroke-linejoin="round"/>
<path fill-rule="evenodd" clip-rule="evenodd" d="M9.52026 1.00116H4.05094C2.41412 0.955766 1.04935 2.24377 1 3.8805V5.83606C1.04935 7.4728 2.41412 8.76081 4.05094 8.71539H9.52026C11.157 8.76081 12.5218 7.4728 12.5712 5.83606V3.8805C12.5218 2.24377 11.157 0.955766 9.52026 1.00116Z" stroke="black" stroke-width="2" stroke-linecap="round" stroke-linejoin="round"/>
<path fill-rule="evenodd" clip-rule="evenodd" d="M19.4794 18.3586H24.9468C25.7496 18.3657 26.5224 18.0535 27.095 17.4907C27.6676 16.9278 27.9931 16.1606 27.9997 15.3578V4.00234C27.9931 3.19983 27.668 2.43281 27.0958 1.87003C26.5236 1.30726 25.7512 0.994836 24.9487 1.00151H19.4794C18.6769 0.994836 17.9046 1.30726 17.3324 1.87003C16.7602 2.43281 16.435 3.19983 16.4285 4.00234V15.3578C16.435 16.1602 16.7602 16.9272 17.3324 17.49C17.9046 18.0527 18.6769 18.3652 19.4794 18.3586Z" stroke="black" stroke-width="2" stroke-linecap="round" stroke-linejoin="round"/>
<path fill-rule="evenodd" clip-rule="evenodd" d="M19.4794 29.9294H24.9468C26.5843 29.9759 27.9503 28.6876 27.9997 27.0501V25.0945C27.9503 23.4578 26.5855 22.1699 24.9487 22.2152H19.4794C17.8427 22.1699 16.4778 23.4578 16.4285 25.0945V27.0482C16.4767 28.6857 17.8419 29.9748 19.4794 29.9294Z" stroke="black" stroke-width="2" stroke-linecap="round" stroke-linejoin="round"/>
</svg>
