<svg width="24" height="24" viewBox="0 0 24 24" fill="none" xmlns="http://www.w3.org/2000/svg">
<path d="M2.39998 7.20009H0V21.6001C0 22.9237 1.07639 24.0001 2.39998 24.0001H16.7999V21.6001H2.39998V7.20009Z" fill="#142850"/>
<path d="M21.6002 0H7.20027C6.56376 0 5.95332 0.252857 5.50323 0.702945C5.05315 1.15303 4.80029 1.76348 4.80029 2.4V16.8C4.80029 17.4365 5.05315 18.047 5.50323 18.4971C5.95332 18.9472 6.56376 19.2 7.20027 19.2H21.6002C22.2367 19.2 22.8471 18.9472 23.2972 18.4971C23.7473 18.047 24.0001 17.4365 24.0001 16.8V2.4C24.0001 1.76348 23.7473 1.15303 23.2972 0.702945C22.8471 0.252857 22.2367 0 21.6002 0ZM10.8002 14.4V4.80001L19.2002 9.60001L10.8002 14.4Z" fill="#142850"/>
</svg>
