<svg width="22" height="27" viewBox="0 0 22 27" fill="none" xmlns="http://www.w3.org/2000/svg">
<mask id="path-1-inside-1_1_152" fill="white">
<path d="M20.8898 20.9183C20.206 20.2281 19.6073 19.4369 19.11 18.5659C18.567 17.3637 18.2415 16.0508 18.1527 14.7042V10.7381C18.1574 8.62312 17.4798 6.57895 16.2472 4.9897C15.0146 3.40045 13.3118 2.37553 11.4589 2.10749V1.07181C11.4589 0.787546 11.3591 0.514928 11.1816 0.313925C11.0041 0.112922 10.7633 0 10.5122 0C10.2612 0 10.0204 0.112922 9.84288 0.313925C9.66535 0.514928 9.56561 0.787546 9.56561 1.07181V2.12354C7.72926 2.41091 6.04709 3.44203 4.83069 5.02594C3.61429 6.60984 2.94607 8.6392 2.94981 10.7381V14.7042C2.861 16.0508 2.53555 17.3637 1.99254 18.5659C1.50389 19.4349 0.914863 20.226 0.24109 20.9183C0.165453 20.9935 0.104833 21.0861 0.0632631 21.19C0.0216935 21.2938 0.000127492 21.4064 0 21.5204V22.6123C0 22.8252 0.0747074 23.0295 0.207687 23.18C0.340667 23.3306 0.521027 23.4152 0.709089 23.4152H20.4218C20.6098 23.4152 20.7902 23.3306 20.9232 23.18C21.0562 23.0295 21.1309 22.8252 21.1309 22.6123V21.5204C21.1307 21.4064 21.1092 21.2938 21.0676 21.19C21.026 21.0861 20.9654 20.9935 20.8898 20.9183ZM1.47491 21.8095C2.13465 21.0879 2.71553 20.2792 3.20508 19.4009C3.88908 17.9489 4.28817 16.3469 4.37508 14.7042V10.7381C4.34696 9.79723 4.48635 8.85953 4.78497 7.98088C5.08358 7.10223 5.5353 6.30061 6.11323 5.62374C6.69117 4.94687 7.38349 4.40859 8.14898 4.04097C8.91447 3.67335 9.73747 3.4839 10.569 3.4839C11.4005 3.4839 12.2235 3.67335 12.989 4.04097C13.7545 4.40859 14.4468 4.94687 15.0247 5.62374C15.6027 6.30061 16.0544 7.10223 16.353 7.98088C16.6516 8.85953 16.791 9.79723 16.7629 10.7381V14.7042C16.8498 16.3469 17.2489 17.9489 17.9329 19.4009C18.4224 20.2792 19.0033 21.0879 19.663 21.8095H1.47491Z"/>
</mask>
<path d="M20.8898 20.9183C20.206 20.2281 19.6073 19.4369 19.11 18.5659C18.567 17.3637 18.2415 16.0508 18.1527 14.7042V10.7381C18.1574 8.62312 17.4798 6.57895 16.2472 4.9897C15.0146 3.40045 13.3118 2.37553 11.4589 2.10749V1.07181C11.4589 0.787546 11.3591 0.514928 11.1816 0.313925C11.0041 0.112922 10.7633 0 10.5122 0C10.2612 0 10.0204 0.112922 9.84288 0.313925C9.66535 0.514928 9.56561 0.787546 9.56561 1.07181V2.12354C7.72926 2.41091 6.04709 3.44203 4.83069 5.02594C3.61429 6.60984 2.94607 8.6392 2.94981 10.7381V14.7042C2.861 16.0508 2.53555 17.3637 1.99254 18.5659C1.50389 19.4349 0.914863 20.226 0.24109 20.9183C0.165453 20.9935 0.104833 21.0861 0.0632631 21.19C0.0216935 21.2938 0.000127492 21.4064 0 21.5204V22.6123C0 22.8252 0.0747074 23.0295 0.207687 23.18C0.340667 23.3306 0.521027 23.4152 0.709089 23.4152H20.4218C20.6098 23.4152 20.7902 23.3306 20.9232 23.18C21.0562 23.0295 21.1309 22.8252 21.1309 22.6123V21.5204C21.1307 21.4064 21.1092 21.2938 21.0676 21.19C21.026 21.0861 20.9654 20.9935 20.8898 20.9183ZM1.47491 21.8095C2.13465 21.0879 2.71553 20.2792 3.20508 19.4009C3.88908 17.9489 4.28817 16.3469 4.37508 14.7042V10.7381C4.34696 9.79723 4.48635 8.85953 4.78497 7.98088C5.08358 7.10223 5.5353 6.30061 6.11323 5.62374C6.69117 4.94687 7.38349 4.40859 8.14898 4.04097C8.91447 3.67335 9.73747 3.4839 10.569 3.4839C11.4005 3.4839 12.2235 3.67335 12.989 4.04097C13.7545 4.40859 14.4468 4.94687 15.0247 5.62374C15.6027 6.30061 16.0544 7.10223 16.353 7.98088C16.6516 8.85953 16.791 9.79723 16.7629 10.7381V14.7042C16.8498 16.3469 17.2489 17.9489 17.9329 19.4009C18.4224 20.2792 19.0033 21.0879 19.663 21.8095H1.47491Z" fill="#142850"/>
<path d="M20.8898 20.9183L8.04313 33.6459L8.08973 33.6929L8.13666 33.7396L20.8898 20.9183ZM19.11 18.5659L2.62914 26.0097L2.98167 26.7903L3.4064 27.534L19.11 18.5659ZM18.1527 14.7042H0.0687854V15.2999L0.107988 15.8943L18.1527 14.7042ZM18.1527 10.7381L0.0688299 10.698L0.0687854 10.7181V10.7381H18.1527ZM11.4589 2.10749H-6.62502V17.7637L8.8699 20.0051L11.4589 2.10749ZM9.56561 2.12354L12.3615 19.99L27.6495 17.5977V2.12354H9.56561ZM2.94981 10.7381H21.0337V10.722L21.0337 10.7059L2.94981 10.7381ZM2.94981 14.7042L20.9945 15.8943L21.0337 15.2999V14.7042H2.94981ZM1.99254 18.5659L17.7552 27.4298L18.1455 26.7356L18.4734 26.0097L1.99254 18.5659ZM0.24109 20.9183L12.9942 33.7396L13.0981 33.6363L13.2003 33.5313L0.24109 20.9183ZM0 21.5204L-18.0839 21.5002L-18.0839 21.5103V21.5204H0ZM0 22.6123H-18.0839H0ZM21.1309 21.5204H39.2148V21.5103L39.2147 21.5002L21.1309 21.5204ZM1.47491 21.8095L-11.8716 9.60707L-39.5616 39.8934H1.47491V21.8095ZM3.20508 19.4009L19.001 28.2052L19.3016 27.666L19.5646 27.1076L3.20508 19.4009ZM4.37508 14.7042L22.4337 15.6597L22.459 15.1823V14.7042H4.37508ZM4.37508 10.7381H22.459V10.468L22.4509 10.1979L4.37508 10.7381ZM10.569 3.4839V21.5678V3.4839ZM16.7629 10.7381L-1.31296 10.1979L-1.32103 10.468V10.7381H16.7629ZM16.7629 14.7042H-1.32103V15.1823L-1.29577 15.6597L16.7629 14.7042ZM17.9329 19.4009L1.57331 27.1076L1.83638 27.666L2.13693 28.2052L17.9329 19.4009ZM19.663 21.8095V39.8934H60.6996L33.0095 9.60707L19.663 21.8095ZM20.8898 20.9183L33.7364 8.19072C34.2008 8.65942 34.5525 9.14085 34.8135 9.59791L19.11 18.5659L3.4064 27.534C4.6622 29.733 6.21122 31.7968 8.04313 33.6459L20.8898 20.9183ZM19.11 18.5659L35.5908 11.1222C35.96 11.9397 36.147 12.7499 36.1974 13.5141L18.1527 14.7042L0.107988 15.8943C0.336011 19.3517 1.17387 22.7877 2.62914 26.0097L19.11 18.5659ZM18.1527 14.7042H36.2366V10.7381H18.1527H0.0687854V14.7042H18.1527ZM18.1527 10.7381L36.2365 10.7783C36.2497 4.85971 34.3707 -1.15014 30.5369 -6.0932L16.2472 4.9897L1.95744 16.0726C0.588866 14.308 0.0650829 12.3865 0.0688299 10.698L18.1527 10.7381ZM16.2472 4.9897L30.5369 -6.0932C26.6681 -11.0814 20.9016 -14.7987 14.0479 -15.7901L11.4589 2.10749L8.8699 20.0051C5.72212 19.5498 3.36105 17.8824 1.95744 16.0726L16.2472 4.9897ZM11.4589 2.10749H29.5428V1.07181H11.4589H-6.62502V2.10749H11.4589ZM11.4589 1.07181H29.5428C29.5428 -3.33354 28.0174 -7.94181 24.7358 -11.6573L11.1816 0.313925L-2.37259 12.2852C-5.29913 8.97167 -6.62502 4.90863 -6.62502 1.07181H11.4589ZM11.1816 0.313925L24.7358 -11.6573C21.3901 -15.4455 16.3354 -18.0839 10.5122 -18.0839V0V18.0839C5.19118 18.0839 0.618077 15.6713 -2.37259 12.2852L11.1816 0.313925ZM10.5122 0V-18.0839C4.68906 -18.0839 -0.365609 -15.4455 -3.71133 -11.6573L9.84288 0.313925L23.3971 12.2852C20.4064 15.6713 15.8333 18.0839 10.5122 18.0839V0ZM9.84288 0.313925L-3.71133 -11.6573C-6.99294 -7.94179 -8.51829 -3.33351 -8.51829 1.07181H9.56561H27.6495C27.6495 4.9086 26.3236 8.97164 23.3971 12.2852L9.84288 0.313925ZM9.56561 1.07181H-8.51829V2.12354H9.56561H27.6495V1.07181H9.56561ZM9.56561 2.12354L6.76978 -15.7429C-0.0135993 -14.6814 -5.69936 -10.9529 -9.51174 -5.9887L4.83069 5.02594L19.1731 16.0406C17.7936 17.8369 15.4721 19.5032 12.3615 19.99L9.56561 2.12354ZM4.83069 5.02594L-9.51174 -5.9887C-13.2909 -1.06779 -15.1445 4.89541 -15.1341 10.7703L2.94981 10.7381L21.0337 10.7059C21.0367 12.383 20.5195 14.2875 19.1731 16.0406L4.83069 5.02594ZM2.94981 10.7381H-15.1341V14.7042H2.94981H21.0337V10.7381H2.94981ZM2.94981 14.7042L-15.0949 13.5141C-15.0445 12.7499 -14.8575 11.9397 -14.4883 11.1222L1.99254 18.5659L18.4734 26.0097C19.9286 22.7877 20.7665 19.3517 20.9945 15.8943L2.94981 14.7042ZM1.99254 18.5659L-13.7701 9.70214C-13.5153 9.2491 -13.1719 8.77158 -12.7181 8.30533L0.24109 20.9183L13.2003 33.5313C15.0016 31.6805 16.5231 29.6207 17.7552 27.4298L1.99254 18.5659ZM0.24109 20.9183L-12.512 8.097C-14.418 9.99289 -15.8129 12.1902 -16.725 14.4681L0.0632631 21.19L16.8515 27.9118C16.0225 29.9821 14.749 31.9942 12.9942 33.7396L0.24109 20.9183ZM0.0632631 21.19L-16.725 14.4681C-17.6366 16.745 -18.0812 19.1356 -18.0839 21.5002L0 21.5204L18.0839 21.5407C18.0815 23.6773 17.68 25.8426 16.8515 27.9118L0.0632631 21.19ZM0 21.5204H-18.0839V22.6123H0H18.0839V21.5204H0ZM0 22.6123H-18.0839C-18.0839 26.9463 -16.5836 31.4862 -13.3465 35.1513L0.207687 23.18L13.7619 11.2088C16.733 14.5727 18.0839 18.7042 18.0839 22.6123H0ZM0.207687 23.18L-13.3465 35.1513C-10.0454 38.8889 -5.05114 41.4991 0.709089 41.4991V23.4152V5.33127C6.09319 5.33127 10.7267 7.77224 13.7619 11.2088L0.207687 23.18ZM0.709089 23.4152V41.4991H20.4218V23.4152V5.33127H0.709089V23.4152ZM20.4218 23.4152V41.4991C26.182 41.4991 31.1763 38.8889 34.4774 35.1513L20.9232 23.18L7.36897 11.2088C10.4041 7.77226 15.0376 5.33127 20.4218 5.33127V23.4152ZM20.9232 23.18L34.4774 35.1513C37.7145 31.4862 39.2148 26.9463 39.2148 22.6123H21.1309H3.04696C3.04696 18.7042 4.39786 14.5727 7.36897 11.2088L20.9232 23.18ZM21.1309 22.6123H39.2148V21.5204H21.1309H3.04696V22.6123H21.1309ZM21.1309 21.5204L39.2147 21.5002C39.2121 19.1359 38.7675 16.7452 37.8558 14.4681L21.0676 21.19L4.27938 27.9118C3.45081 25.8424 3.04936 23.677 3.04697 21.5407L21.1309 21.5204ZM21.0676 21.19L37.8558 14.4681C36.9437 12.19 35.5488 9.99275 33.6429 8.097L20.8898 20.9183L8.13666 33.7396C6.38205 31.9943 5.1084 29.9823 4.27938 27.9118L21.0676 21.19ZM1.47491 21.8095L14.8214 34.0119C16.4531 32.2272 17.8488 30.2724 19.001 28.2052L3.20508 19.4009L-12.5909 10.5966C-12.4178 10.2861 -12.1838 9.94855 -11.8716 9.60707L1.47491 21.8095ZM3.20508 19.4009L19.5646 27.1076C21.272 23.4832 22.2262 19.5821 22.4337 15.6597L4.37508 14.7042L-13.6836 13.7488C-13.6499 13.1117 -13.4938 12.4146 -13.1545 11.6943L3.20508 19.4009ZM4.37508 14.7042H22.459V10.7381H4.37508H-13.7088V14.7042H4.37508ZM4.37508 10.7381L22.4509 10.1979C22.4864 11.385 22.3138 12.603 21.9071 13.7999L4.78497 7.98088L-12.3371 2.16186C-13.3411 5.11605 -13.7925 8.20944 -13.7007 11.2784L4.37508 10.7381ZM4.78497 7.98088L21.9071 13.7999C21.5001 14.9973 20.8397 16.226 19.866 17.3663L6.11323 5.62374L-7.63957 -6.11883C-9.76906 -3.62478 -11.333 -0.792871 -12.3371 2.16186L4.78497 7.98088ZM6.11323 5.62374L19.866 17.3663C18.8886 18.511 17.5918 19.5673 15.9777 20.3425L8.14898 4.04097L0.320307 -12.2605C-2.82477 -10.7501 -5.50631 -8.61728 -7.63957 -6.11883L6.11323 5.62374ZM8.14898 4.04097L15.9777 20.3425C14.3538 21.1223 12.5066 21.5678 10.569 21.5678V3.4839V-14.6C6.96839 -14.6 3.47514 -13.7756 0.320307 -12.2605L8.14898 4.04097ZM10.569 3.4839V21.5678C8.6314 21.5678 6.78415 21.1223 5.16029 20.3425L12.989 4.04097L20.8176 -12.2605C17.6628 -13.7756 14.1696 -14.6 10.569 -14.6V3.4839ZM12.989 4.04097L5.16029 20.3425C3.5462 19.5673 2.24931 18.511 1.27192 17.3663L15.0247 5.62374L28.7775 -6.11883C26.6443 -8.61728 23.9627 -10.7501 20.8176 -12.2605L12.989 4.04097ZM15.0247 5.62374L1.27192 17.3663C0.29828 16.226 -0.362168 14.9973 -0.769119 13.7999L16.353 7.98088L33.4751 2.16186C32.4709 -0.792863 30.907 -3.62478 28.7775 -6.11883L15.0247 5.62374ZM16.353 7.98088L-0.769119 13.7999C-1.17588 12.603 -1.34844 11.385 -1.31296 10.1979L16.7629 10.7381L34.8387 11.2784C34.9304 8.20942 34.4791 5.11603 33.4751 2.16186L16.353 7.98088ZM16.7629 10.7381H-1.32103V14.7042H16.7629H34.8468V10.7381H16.7629ZM16.7629 14.7042L-1.29577 15.6597C-1.08824 19.5821 -0.134033 23.4832 1.57331 27.1076L17.9329 19.4009L34.2924 11.6943C34.6318 12.4146 34.7878 13.1117 34.8215 13.7488L16.7629 14.7042ZM17.9329 19.4009L2.13693 28.2052C3.28912 30.2724 4.68486 32.2272 6.31655 34.0119L19.663 21.8095L33.0095 9.60707C33.3217 9.94854 33.5557 10.2861 33.7288 10.5966L17.9329 19.4009ZM19.663 21.8095V3.72557H1.47491V21.8095V39.8934H19.663V21.8095Z" fill="#142850" mask="url(#path-1-inside-1_1_152)"/>
<mask id="path-3-inside-2_1_152" fill="white">
<path d="M10.6006 26.0966C11.0472 26.085 11.4759 25.8948 11.8107 25.5598C12.1455 25.2248 12.3649 24.7666 12.43 24.2661H8.7002C8.76719 24.7802 8.99682 25.2492 9.34639 25.5859C9.69596 25.9226 10.1416 26.1041 10.6006 26.0966Z"/>
</mask>
<path d="M10.6006 26.0966C11.0472 26.085 11.4759 25.8948 11.8107 25.5598C12.1455 25.2248 12.3649 24.7666 12.43 24.2661H8.7002C8.76719 24.7802 8.99682 25.2492 9.34639 25.5859C9.69596 25.9226 10.1416 26.1041 10.6006 26.0966Z" fill="#142850"/>
<path d="M10.6006 26.0966L10.8965 44.1781L10.9842 44.1767L11.0719 44.1744L10.6006 26.0966ZM12.43 24.2661L30.3626 26.6003L33.0204 6.18221H12.43V24.2661ZM8.7002 24.2661V6.18221H-11.8932L-9.23209 26.6029L8.7002 24.2661ZM10.6006 26.0966L11.0719 44.1744C16.4488 44.0342 21.2067 41.7403 24.6016 38.3434L11.8107 25.5598L-0.980234 12.7763C1.74508 10.0494 5.64564 8.13576 10.1292 8.01886L10.6006 26.0966ZM11.8107 25.5598L24.6016 38.3434C27.9471 34.996 29.8188 30.7784 30.3626 26.6003L12.43 24.2661L-5.50262 21.9319C-5.08906 18.7548 -3.65611 15.4537 -0.980234 12.7763L11.8107 25.5598ZM12.43 24.2661V6.18221H8.7002V24.2661V42.35H12.43V24.2661ZM8.7002 24.2661L-9.23209 26.6029C-8.6734 30.8902 -6.7144 35.2244 -3.19923 38.6103L9.34639 25.5859L21.892 12.5615C24.7081 15.2741 26.2078 18.6702 26.6325 21.9293L8.7002 24.2661ZM9.34639 25.5859L-3.19923 38.6103C0.374252 42.0524 5.3602 44.2687 10.8965 44.1781L10.6006 26.0966L10.3046 8.01514C14.9231 7.93954 19.0177 9.79285 21.892 12.5615L9.34639 25.5859Z" fill="#142850" mask="url(#path-3-inside-2_1_152)"/>
</svg>
