<svg width="27" height="27" viewBox="0 0 27 27" fill="none" xmlns="http://www.w3.org/2000/svg">
<path d="M25.6883 17.5499C24.634 16.2513 23.0269 15.4285 21.214 15.4285C19.8511 15.4285 18.5911 15.9042 17.6011 16.7013C16.2639 17.7556 15.4282 19.3885 15.4282 21.2142C15.4282 22.2942 15.7368 23.3227 16.2639 24.197C16.6111 24.7756 17.0482 25.277 17.5625 25.6884H17.5754C18.5654 26.5113 19.8383 26.9999 21.214 26.9999C22.6797 26.9999 24.004 26.4599 25.0198 25.5599C25.4698 25.1742 25.8555 24.7113 26.1641 24.197C26.6912 23.3227 26.9998 22.2942 26.9998 21.2142C26.9998 19.8256 26.5112 18.5399 25.6883 17.5499ZM24.1197 20.4942L21.034 23.3485C20.854 23.5156 20.6097 23.6056 20.3783 23.6056C20.134 23.6056 19.8897 23.5156 19.6968 23.3227L18.2697 21.8956C17.8968 21.5227 17.8968 20.9056 18.2697 20.5327C18.6425 20.1599 19.2597 20.1599 19.6326 20.5327L20.404 21.3042L22.8083 19.0799C23.194 18.7199 23.8112 18.7456 24.1712 19.1313C24.544 19.5299 24.5183 20.1342 24.1197 20.4942Z" fill="#292D32"/>
<path d="M16.3662 4.96285V0.642856C16.3662 0.282857 16.0834 0 15.7234 0H9.98906C9.62905 0 9.34619 0.282857 9.34619 0.642856V4.96285C9.34619 5.32285 9.62905 5.6057 9.98906 5.6057H15.7234C16.0834 5.6057 16.3662 5.32285 16.3662 4.96285Z" fill="#292D32"/>
<path d="M6.74795 0.0268906C3.45648 0.232605 1.20646 1.92974 0.370737 4.75831C0.242164 5.1826 0.550739 5.60688 0.987887 5.60688H6.77366C7.13367 5.60688 7.41653 5.32402 7.41653 4.96403V0.669747C7.41653 0.309747 7.10795 0.0011764 6.74795 0.0268906Z" fill="#292D32"/>
<path d="M18.9655 0.0116318C22.2569 0.217346 24.5069 1.91449 25.3427 4.74305C25.4712 5.16734 25.1627 5.59162 24.7255 5.59162H18.9397C18.5797 5.59162 18.2969 5.30876 18.2969 4.94876V0.654488C18.2969 0.294488 18.6055 -0.0140824 18.9655 0.0116318Z" fill="#292D32"/>
<path d="M25.7146 8.17641V13.8079C25.7146 14.2836 25.2131 14.5922 24.7888 14.3736C23.7088 13.8079 22.4745 13.4993 21.2145 13.4993C19.1445 13.4993 17.1259 14.3479 15.6859 15.8264C14.2716 17.2664 13.5001 19.1821 13.5001 21.2136C13.5001 22.255 13.9116 23.5921 14.4259 24.7107C14.6316 25.1607 14.323 25.7136 13.8216 25.7136H7.47008C3.34289 25.7136 0 22.3707 0 18.2436V8.17641C0 7.81641 0.28286 7.53357 0.642864 7.53357H25.0717C25.4317 7.53357 25.7146 7.81641 25.7146 8.17641Z" fill="#292D32"/>
</svg>
