<svg width="28" height="27" viewBox="0 0 28 27" fill="none" xmlns="http://www.w3.org/2000/svg">
<path d="M25.9 0H2.1C0.933352 0 0 0.933352 0 2.1V16.3334V18.4334C0 19.6 0.933352 20.5334 2.1 20.5334H11.06L10.36 23.3334H10.2666C8.96 23.3334 7.9333 24.36 7.9333 25.6667C7.9333 25.9467 8.11995 26.1334 8.39995 26.1334H19.5999C19.8799 26.1334 20.0666 25.9467 20.0666 25.6667C20.0666 24.3601 19.0399 23.3334 17.7332 23.3334H17.6399L16.9399 20.5334H25.9C27.0667 20.5334 28 19.6 28 18.4334V16.3334V2.1C28 0.933297 27.0667 0 25.9 0ZM0.933352 2.1C0.933352 1.44665 1.4467 0.933352 2.1 0.933352H25.9C26.5534 0.933352 27.0667 1.4467 27.0667 2.1V15.8666H0.933352V2.1ZM19.0866 25.2H8.96C9.14665 24.64 9.66 24.2666 10.2666 24.2666H10.7333H17.2666H17.78C18.3867 24.2666 18.9 24.64 19.0866 25.2ZM16.66 23.3333H11.34L12.04 20.5333H15.96L16.66 23.3333ZM27.0667 18.4333C27.0667 19.0866 26.5533 19.5999 25.9 19.5999H16.3334H11.6667H2.1C1.44665 19.5999 0.933352 19.0866 0.933352 18.4333V16.7999H27.0667L27.0667 18.4333Z" fill="#142850"/>
</svg>
