<svg width="29" height="33" viewBox="0 0 29 33" fill="none" xmlns="http://www.w3.org/2000/svg">
<path d="M14.4082 24.1843C10.1845 24.1843 6.73712 20.737 6.73712 16.5133C6.73712 12.7764 9.3687 9.64485 12.974 8.97379V7.61853C8.6187 8.30274 5.39502 12.0396 5.39502 16.5133C5.39502 21.4738 9.43449 25.5264 14.4082 25.5264C18.8819 25.5264 22.6187 22.3027 23.3029 17.9475H21.9477C21.2634 21.5396 18.145 24.1843 14.4082 24.1843Z" fill="#142850"/>
<path d="M15.3286 7.55234L14.5918 7.47339V16.3287H23.4471L23.3681 15.5918C22.9471 11.3681 19.5523 7.97339 15.3286 7.55234ZM15.9207 14.9997V8.9997C18.9339 9.60497 21.3155 11.9865 21.9207 14.9997H15.9207Z" fill="#142850"/>
<path d="M28.8553 26.6184L28.8421 25.4868C28.8421 21.1711 28.8553 8.81579 28.8421 3.42105C28.8421 1.47368 27.329 0 25.3553 0H17.25H14.2368C10.7763 0 7.19737 0 3.68421 0C2.73684 0 1.78947 0.407895 1.07895 1.13158C0.381579 1.82895 0 2.75 0 3.71053C0.0263158 11.3553 0.0263158 16.25 0.0131579 22.4474V29.1447C0.0131579 30.1842 0.407895 31.1579 1.13158 31.8816C1.85526 32.6053 2.82895 33 3.86842 33H15C18.4342 33 21.9474 33 25.4211 32.9868C25.8026 32.9868 26.1842 32.9211 26.5132 32.8158C27.8947 32.3421 28.8421 31.0132 28.8684 29.5263C28.8553 28.5526 28.8553 27.5658 28.8553 26.6184ZM27.5 29.5C27.4868 30.4211 26.9079 31.25 26.0526 31.5395C25.8684 31.6053 25.6447 31.6447 25.3947 31.6447C21.9342 31.6579 18.4211 31.6579 14.9737 31.6579H3.84211C3.15789 31.6579 2.51316 31.4079 2.05263 30.9342C1.59211 30.4737 1.32895 29.8421 1.32895 29.1579V22.4605C1.32895 16.2632 1.34211 11.3684 1.31579 3.72368C1.31579 3.11842 1.55263 2.53947 2 2.09211C2.46053 1.63158 3.06579 1.36842 3.6579 1.36842C7.17105 1.36842 10.75 1.36842 14.2105 1.36842H17.2237H25.3289C26.5921 1.36842 27.4737 2.22368 27.4737 3.44737C27.4868 8.82895 27.4737 21.1974 27.4737 25.5132L27.4868 26.6447C27.5132 27.5658 27.5132 28.5395 27.5 29.5Z" fill="#142850"/>
</svg>
