<svg width="24" height="25" viewBox="0 0 24 25" fill="none" xmlns="http://www.w3.org/2000/svg">
<path d="M23.8161 17.5V20.8333C23.8148 21.938 23.3962 22.997 22.6521 23.7782C21.9079 24.5593 20.8991 24.9987 19.8467 25H16.6712C16.4607 25 16.2588 24.9122 16.1099 24.7559C15.961 24.5996 15.8774 24.3877 15.8774 24.1667C15.8774 23.9457 15.961 23.7337 16.1099 23.5774C16.2588 23.4211 16.4607 23.3333 16.6712 23.3333H19.8467C20.4781 23.3326 21.0835 23.069 21.53 22.6003C21.9765 22.1316 22.2276 21.4961 22.2283 20.8333V17.5C22.2283 17.279 22.312 17.067 22.4608 16.9107C22.6097 16.7545 22.8116 16.6667 23.0222 16.6667C23.2327 16.6667 23.4347 16.7545 23.5835 16.9107C23.7324 17.067 23.8161 17.279 23.8161 17.5ZM19.8467 0H16.6712C16.4607 0 16.2588 0.0877973 16.1099 0.244078C15.961 0.400358 15.8774 0.61232 15.8774 0.833333C15.8774 1.05435 15.961 1.26631 16.1099 1.42259C16.2588 1.57887 16.4607 1.66667 16.6712 1.66667H19.8467C20.4781 1.66742 21.0835 1.93105 21.53 2.39973C21.9765 2.86841 22.2276 3.50386 22.2283 4.16667V7.5C22.2283 7.72101 22.312 7.93297 22.4608 8.08926C22.6097 8.24554 22.8116 8.33333 23.0222 8.33333C23.2327 8.33333 23.4347 8.24554 23.5835 8.08926C23.7324 7.93297 23.8161 7.72101 23.8161 7.5V4.16667C23.8148 3.062 23.3962 2.00296 22.6521 1.22185C21.9079 0.440735 20.8991 0.00132321 19.8467 0ZM0.793868 8.33333C1.00442 8.33333 1.20634 8.24554 1.35522 8.08926C1.5041 7.93297 1.58774 7.72101 1.58774 7.5V4.16667C1.58845 3.50386 1.8396 2.86841 2.28608 2.39973C2.73256 1.93105 3.33792 1.66742 3.96934 1.66667H7.14482C7.35536 1.66667 7.55729 1.57887 7.70616 1.42259C7.85504 1.26631 7.93868 1.05435 7.93868 0.833333C7.93868 0.61232 7.85504 0.400358 7.70616 0.244078C7.55729 0.0877973 7.35536 0 7.14482 0H3.96934C2.91699 0.00132321 1.90811 0.440735 1.16399 1.22185C0.419863 2.00296 0.00126055 3.062 0 4.16667V7.5C0 7.72101 0.0836394 7.93297 0.232519 8.08926C0.381398 8.24554 0.583321 8.33333 0.793868 8.33333ZM3.96934 25H7.14482C7.35536 25 7.55729 24.9122 7.70616 24.7559C7.85504 24.5996 7.93868 24.3877 7.93868 24.1667C7.93868 23.9457 7.85504 23.7337 7.70616 23.5774C7.55729 23.4211 7.35536 23.3333 7.14482 23.3333H3.96934C3.33792 23.3326 2.73256 23.069 2.28608 22.6003C1.8396 22.1316 1.58845 21.4961 1.58774 20.8333V17.5C1.58774 17.279 1.5041 17.067 1.35522 16.9107C1.20634 16.7545 1.00442 16.6667 0.793868 16.6667C0.583321 16.6667 0.381398 16.7545 0.232519 16.9107C0.0836394 17.067 0 17.279 0 17.5V20.8333C0.00126055 21.938 0.419863 22.997 1.16399 23.7782C1.90811 24.5593 2.91699 24.9987 3.96934 25ZM11.908 18.3333C13.0071 18.3333 14.0815 17.9912 14.9954 17.3502C15.9092 16.7093 16.6215 15.7982 17.0421 14.7323C17.4627 13.6664 17.5727 12.4935 17.3583 11.362C17.1439 10.2304 16.6146 9.19102 15.8375 8.37521C15.0603 7.5594 14.0701 7.00383 12.9922 6.77875C11.9142 6.55367 10.7968 6.66919 9.78142 7.1107C8.766 7.55221 7.8981 8.29989 7.28748 9.25917C6.67686 10.2185 6.35095 11.3463 6.35095 12.5C6.35254 14.0466 6.93853 15.5293 7.98034 16.6229C9.02215 17.7165 10.4347 18.3317 11.908 18.3333Z" fill="#142850"/>
</svg>
