<svg width="28" height="20" viewBox="0 0 28 20" fill="none" xmlns="http://www.w3.org/2000/svg">
<path d="M8.28003 10.9602C7.60003 9.88016 7.20003 8.60014 7.20003 7.20012C7.20003 4.84008 8.20003 2.84005 9.80004 1.64003C9.20004 0.640011 8.20003 0 6.80003 0C4.48002 0 3.20001 1.84003 3.20001 4.00006C3.20001 5.16008 3.60001 6.1201 4.36002 6.84011C4.80002 7.24012 5.16002 7.76013 5.16002 8.32014C5.16002 8.88014 4.96002 9.36015 3.64001 9.92016C1.76001 10.7602 0.0400002 11.8402 0 13.6002C0 14.7602 0.760003 15.6003 1.84001 15.6003H3.56001C3.84001 15.6003 4.12002 15.4403 4.24002 15.2002C5.08002 13.6802 6.64003 12.7202 7.96003 12.0802C8.40003 11.8802 8.56003 11.3602 8.28003 10.9602Z" fill="#142850"/>
<path d="M23.5594 9.92016C22.2394 9.36015 22.0394 8.84014 22.0394 8.32013C22.0394 7.76013 22.3994 7.24012 22.8394 6.84011C23.5994 6.1201 23.9994 5.16008 23.9994 4.00006C23.9994 1.84003 22.7194 0 20.3994 0C18.9994 0 17.9994 0.640011 17.3994 1.64003C18.9994 2.84005 19.9994 4.80008 19.9994 7.20012C19.9994 8.60014 19.6394 9.88016 18.9194 10.9602C18.6394 11.3602 18.7994 11.8802 19.2394 12.1202C20.5594 12.7602 22.1194 13.7202 22.9594 15.2402C23.0794 15.4803 23.3594 15.6403 23.6394 15.6403H25.3594C26.4395 15.6403 27.1995 14.8002 27.1995 13.6402C27.1595 11.8802 25.4394 10.7602 23.5594 9.92016Z" fill="#142850"/>
<path d="M17.0796 13.7597C15.6396 13.1597 15.4395 12.5997 15.4395 11.9997C15.4395 11.3997 15.8396 10.7997 16.3196 10.3597C17.1596 9.59967 17.6396 8.47965 17.6396 7.19963C17.6396 4.83959 16.1996 2.79956 13.6395 2.79956C11.0795 2.79956 9.63953 4.83959 9.63953 7.19963C9.63953 8.47965 10.1195 9.55967 10.9595 10.3597C11.4395 10.7997 11.8395 11.3997 11.8395 11.9997C11.8395 12.5997 11.5995 13.1597 10.1995 13.7597C8.03952 14.6398 6.03951 15.6798 5.99951 17.5998C5.99951 18.8798 6.91952 19.9998 8.11952 19.9998H13.5995H19.0796C20.2796 19.9998 21.1996 18.8798 21.1996 17.5998C21.1596 15.6798 19.1596 14.6398 17.0796 13.7597Z" fill="#142850"/>
</svg>
