<svg width="28" height="29" viewBox="0 0 28 29" fill="none" xmlns="http://www.w3.org/2000/svg">
<path fill-rule="evenodd" clip-rule="evenodd" d="M27.1368 14.2425C27.1368 6.37616 21.0618 0 13.5688 0C6.07579 0 0 6.37616 0 14.2425C0 22.1088 6.07499 28.485 13.568 28.485C21.061 28.485 27.1368 22.1088 27.1368 14.2425ZM24.8977 14.2425C24.8977 20.8105 19.8249 26.1354 13.568 26.1354C7.31106 26.1354 2.23912 20.8105 2.23912 14.2425C2.23912 7.67451 7.31106 2.3496 13.568 2.3496C19.8249 2.3496 24.8977 7.67451 24.8977 14.2425Z" fill="#142850"/>
<path fill-rule="evenodd" clip-rule="evenodd" d="M19.4658 14.2426L10.8779 7.89069V20.5944L19.4658 14.2426Z" fill="#142850"/>
</svg>
